<mxfile host="app.diagrams.net" modified="2023-10-19T14:39:23.775Z" agent="Mozilla/5.0 (Macintosh; Intel Mac OS X 10_15_7) AppleWebKit/537.36 (KHTML, like Gecko) Chrome/114.0.0.0 Safari/537.36" version="22.0.5" etag="gr2cXKp5MawSpP5McS_O" type="github">
  <diagram name="Page-1" id="-yYF4DU0PBUfnFM0NCBP">
    <mxGraphModel>
      <root>
        <mxCell id="0" />
        <mxCell id="1" parent="0" />
      </root>
    </mxGraphModel>
  </diagram>
</mxfile>
